<?xml version="1.0" encoding="utf-8"?>
<!-- Generator: Adobe Illustrator 23.0.3, SVG Export Plug-In . SVG Version: 6.00 Build 0)  -->
<svg version="1.1" xmlns="http://www.w3.org/2000/svg" xmlns:xlink="http://www.w3.org/1999/xlink" x="0px" y="0px"
	 viewBox="0 0 806.5 471.7" style="enable-background:new 0 0 806.5 471.7;" xml:space="preserve">
<style type="text/css">
	.st0{fill:#F5A800;}
	.st1{fill:#425CC7;}
	.st2{display:none;}
</style>
<g id="ARTWORK">
	<g>
		<g>
			<path class="st0" d="M413.1,187.8c-14.5,14.5-14.5,37.9,0,52.3c14.5,14.5,37.9,14.5,52.3,0c14.5-14.5,14.5-37.9,0-52.3
				S427.6,173.4,413.1,187.8z M452.2,227c-7.2,7.2-18.8,7.2-25.9,0c-7.2-7.2-7.2-18.8,0-25.9c7.2-7.2,18.8-7.2,25.9,0
				C459.4,208.2,459.4,219.8,452.2,227z"/>
			<path class="st0" d="M464.8,5.8l-22.7,22.7c-4.4,4.4-4.4,11.7,0,16.2l88.5,88.5c4.4,4.4,11.7,4.4,16.2,0l22.7-22.7
				c4.4-4.4,4.4-11.7,0-16.2L481,5.8C476.5,1.3,469.2,1.3,464.8,5.8z"/>
			<path class="st0" d="M306,295.5c4-4,4-10.6,0-14.6l-11.5-11.5c-4-4-10.6-4-14.6,0L256,293.1c0,0,0,0,0,0l-6.5-6.5
				c-3.6-3.6-9.5-3.6-13.1,0c-3.6,3.6-3.6,9.5,0,13.1l39.3,39.3c3.6,3.6,9.5,3.6,13.1,0s3.6-9.5,0-13.1l-6.5-6.5c0,0,0,0,0,0
				L306,295.5z"/>
			<path class="st1" d="M425.9,70.8l-50.4,50.4c-4.5,4.5-4.5,11.8,0,16.3l31.1,31.1c22-15.8,52.8-13.9,72.6,5.9l25.2-25.2
				c4.5-4.5,4.5-11.8,0-16.3l-62.2-62.2C437.7,66.4,430.4,66.4,425.9,70.8z"/>
			<path class="st1" d="M393.6,181.8l-18.4-18.4c-4.3-4.3-11.3-4.3-15.6,0l-64.8,64.8c-4.3,4.3-4.3,11.3,0,15.6l36.7,36.7
				c4.3,4.3,11.3,4.3,15.6,0l41.7-41.7C380,220.6,381.6,198.6,393.6,181.8z"/>
		</g>
		<g>
			<path class="st0" d="M15,387.5c-14.5,14.5-14.5,37.9,0,52.3c14.5,14.5,37.9,14.5,52.3,0c14.5-14.5,14.5-37.9,0-52.3
				C52.9,373,29.5,373,15,387.5z M54.2,426.6c-7.2,7.2-18.8,7.2-25.9,0s-7.2-18.8,0-25.9c7.2-7.2,18.8-7.2,25.9,0
				S61.3,419.4,54.2,426.6z"/>
			<path class="st0" d="M121.8,393.9c-8.1,0-13.3,3.8-17.1,8.9v-7.9H89.2V466h15.5v-23.5c3.7,4.4,8.8,8.2,17.1,8.2
				c13,0,24.9-10,24.9-28.3v-0.2C146.7,403.9,134.6,393.9,121.8,393.9z M131.2,422.4c0,9.2-6.1,15.1-13.4,15.1s-13.3-6-13.3-15.1
				v-0.2c0-9.1,6-15.1,13.3-15.1s13.4,6,13.4,15.1V422.4z"/>
			<path class="st0" d="M184.7,393.9c-15.9,0-26.9,12.8-26.9,28.4v0.2c0,16.7,12.1,28.2,28.5,28.2c9.9,0,17.2-3.9,22.3-10.2
				l-8.8-7.8c-4.3,4-8,5.6-13.2,5.6c-6.9,0-11.8-3.7-13.3-10.7H211c0.1-1.4,0.2-2.8,0.2-4.1C211.2,408.1,202.8,393.9,184.7,393.9z
				 M172.9,417.9c1.2-7,5.4-11.6,11.8-11.6c6.5,0,10.6,4.7,11.5,11.6H172.9z"/>
			<path class="st0" d="M254.3,393.9c-8,0-12.7,4.3-16.3,8.9V395h-15.8v55.7H238v-31.1c0-7.5,3.8-11.3,9.9-11.3
				c6,0,9.6,3.8,9.6,11.3v31.1h15.8v-36C273.2,401.8,266.2,393.9,254.3,393.9z"/>
			<polygon class="st1" points="280,391.5 302.5,391.5 302.5,450.6 318.8,450.6 318.8,391.5 341.4,391.5 341.4,376.5 280,376.5 			
				"/>
			<path class="st1" d="M368.5,393.9c-15.9,0-26.9,12.8-26.9,28.4v0.2c0,16.7,12.1,28.2,28.5,28.2c9.9,0,17.2-3.9,22.3-10.2
				l-8.8-7.8c-4.3,4-8,5.6-13.2,5.6c-6.9,0-11.8-3.7-13.3-10.7h37.9c0.1-1.4,0.2-2.8,0.2-4.1C395,408,386.6,393.9,368.5,393.9z
				 M356.7,417.9c1.2-7,5.4-11.6,11.8-11.6c6.5,0,10.6,4.7,11.5,11.6H356.7z"/>
			<rect x="406" y="376.5" class="st1" width="15.4" height="74.1"/>
			<path class="st1" d="M459.4,394c-15.9,0-26.9,12.8-26.9,28.4v0.2c0,16.7,12.1,28.2,28.5,28.2c9.9,0,17.2-3.9,22.3-10.2l-8.8-7.8
				c-4.3,4-8,5.6-13.2,5.6c-6.9,0-11.8-3.7-13.3-10.7h37.9c0.1-1.4,0.2-2.8,0.2-4.1C485.9,408.1,477.6,394,459.4,394z M447.6,417.9
				c1.2-7,5.4-11.6,11.8-11.6c6.5,0,10.6,4.7,11.5,11.6H447.6z"/>
			<path class="st1" d="M563.1,393.9c-7.6,0-13.4,3.1-18.3,8.8c-2.9-5.6-8.4-8.8-15.7-8.8c-8,0-12.8,4.3-16.4,8.9V395h-15.8v55.7
				h15.8v-31.1c0-7.5,3.6-11.3,9.6-11.3c5.9,0,9.2,3.8,9.2,11.3v31.1h15.8v-31.1c0-7.5,3.6-11.3,9.6-11.3c5.9,0,9.2,3.8,9.2,11.3
				v31.1h15.8v-36.3C581.9,401,574.8,393.9,563.1,393.9z"/>
			<path class="st1" d="M619.8,393.9c-15.9,0-26.9,12.8-26.9,28.4v0.2c0,16.7,12.1,28.2,28.5,28.2c9.9,0,17.2-3.9,22.3-10.2
				l-8.8-7.8c-4.3,4-8,5.6-13.2,5.6c-6.9,0-11.8-3.7-13.3-10.7h37.9c0.1-1.4,0.2-2.8,0.2-4.1C646.4,408,638,393.9,619.8,393.9z
				 M608.1,417.9c1.2-7,5.4-11.6,11.8-11.6c6.5,0,10.6,4.7,11.5,11.6H608.1z"/>
			<path class="st1" d="M675.1,379.2h-15.9v14.4h-6.7v13.6h6.7v26.6c0,13,6.6,16.9,16.4,16.9c5.3,0,9.2-1.3,12.6-3.3v-12.8
				c-2.3,1.3-4.9,2-7.9,2c-3.6,0-5.1-1.8-5.1-5.5v-24h13.2v-13.6h-13.2V379.2z"/>
			<path class="st1" d="M716.3,406v-11.4h-16v56.6h16v-20.9c0-13.5,6.5-20,17.2-20h0.8v-16.8C724.9,393.1,719.6,398.1,716.3,406z"/>
			<path class="st1" d="M785.3,393.9l-12.6,39.3l-13.1-39.3h-17.3l22.6,58c-1.4,2.9-2.9,3.8-5.7,3.8c-2.2,0-4.8-1-7-2.3l-5.5,11.8
				c4.2,2.5,8.6,4,14.5,4c9.8,0,14.5-4.4,19-16.2l22.2-59.1H785.3z"/>
		</g>
	</g>
</g>
<g id="RULERS" class="st2">
</g>
</svg>
