<?xml version="1.0" encoding="utf-8"?>
<!-- Generator: Adobe Illustrator 23.0.3, SVG Export Plug-In . SVG Version: 6.00 Build 0)  -->
<svg version="1.1" id="Layer_1" xmlns="http://www.w3.org/2000/svg" xmlns:xlink="http://www.w3.org/1999/xlink" x="0px" y="0px"
	 viewBox="0 0 1000 1000" style="enable-background:new 0 0 1000 1000;" xml:space="preserve">
<style type="text/css">
	.st0{fill:#F5A800;}
	.st1{fill:#425CC7;}
</style>
<g>
	<path class="st0" d="M528.7,545.9c-42,42-42,110.1,0,152.1c42,42,110.1,42,152.1,0c42-42,42-110.1,0-152.1
		C638.8,503.9,570.7,503.9,528.7,545.9z M642.4,659.7c-20.8,20.8-54.5,20.8-75.3,0c-20.8-20.8-20.8-54.5,0-75.3
		c20.8-20.8,54.5-20.8,75.3,0C663.2,605.1,663.2,638.9,642.4,659.7z"/>
	<path class="st0" d="M679,16.7l-65.9,65.9c-12.9,12.9-12.9,34.1,0,47l257.3,257.3c12.9,12.9,34.1,12.9,47,0l65.9-65.9
		c12.9-12.9,12.9-34.1,0-47L725.9,16.7C713,3.8,691.9,3.8,679,16.7z"/>
	<path class="st0" d="M217.3,858.8c11.7-11.7,11.7-30.8,0-42.5l-33.5-33.5c-11.7-11.7-30.8-11.7-42.5,0l-69.2,69.2
		c0,0-0.1,0.1-0.1,0.1l-19-19c-10.5-10.5-27.6-10.5-38,0c-10.5,10.5-10.5,27.6,0,38L129,985.1c10.5,10.5,27.6,10.5,38,0
		s10.5-27.6,0-38l-19-19c0,0,0.1-0.1,0.1-0.1L217.3,858.8z"/>
	<path class="st1" d="M565.9,205.9L419.5,352.3c-13,13-13,34.4,0,47.4l90.4,90.4c63.9-46,153.5-40.3,211,17.2l73.2-73.2
		c13-13,13-34.4,0-47.4L613.3,205.9C600.3,192.8,578.9,192.8,565.9,205.9z"/>
	<path class="st1" d="M471.9,528.2l-53.4-53.4c-12.5-12.5-33-12.5-45.5,0L184.7,663.2c-12.5,12.5-12.5,33,0,45.5l106.7,106.7
		c12.5,12.5,33,12.5,45.5,0L458,694.1C432.4,641.2,437,577.3,471.9,528.2z"/>
</g>
</svg>
