<?xml version="1.0" encoding="utf-8"?>
<!-- Generator: Adobe Illustrator 23.0.3, SVG Export Plug-In . SVG Version: 6.00 Build 0)  -->
<svg version="1.1" xmlns="http://www.w3.org/2000/svg" xmlns:xlink="http://www.w3.org/1999/xlink" x="0px" y="0px"
	 viewBox="0 0 985.5 345.7" style="enable-background:new 0 0 985.5 345.7;" xml:space="preserve">
<style type="text/css">
	.st0{fill:#FFFFFF;}
	.st1{display:none;}
</style>
<g id="ARTWORK">
	<g>
		<path class="st0" d="M185.6,188.8c-14.6,14.6-14.6,38.3,0,52.9c14.6,14.6,38.3,14.6,52.9,0c14.6-14.6,14.6-38.3,0-52.9
			C223.9,174.2,200.2,174.2,185.6,188.8z M225.2,228.4c-7.2,7.2-19,7.2-26.2,0c-7.2-7.2-7.2-19,0-26.2c7.2-7.2,19-7.2,26.2,0
			C232.4,209.4,232.4,221.2,225.2,228.4z"/>
		<path class="st0" d="M260.6,196.4h15.7v7.9c3.8-5.2,9.1-9,17.2-9c12.9,0,25.2,10.1,25.2,28.6v0.2c0,18.5-12.1,28.6-25.2,28.6
			c-8.4,0-13.5-3.8-17.2-8.3v23.7h-15.7V196.4z M303,224.2V224c0-9.2-6.2-15.3-13.5-15.3c-7.3,0-13.4,6.1-13.4,15.3v0.2
			c0,9.2,6.1,15.3,13.4,15.3C296.8,239.4,303,233.5,303,224.2z"/>
		<path class="st0" d="M329.8,224.3v-0.2c0-15.7,11.2-28.7,27.2-28.7c18.4,0,26.8,14.3,26.8,29.9c0,1.2-0.1,2.7-0.2,4.1h-38.3
			c1.5,7.1,6.5,10.8,13.5,10.8c5.2,0,9-1.6,13.4-5.6l8.9,7.9c-5.1,6.4-12.5,10.3-22.5,10.3C342,252.7,329.8,241.1,329.8,224.3z
			 M368.6,219.6c-0.9-7-5-11.7-11.6-11.7c-6.5,0-10.7,4.6-11.9,11.7H368.6z"/>
		<path class="st0" d="M395,196.4h16v8c3.7-4.7,8.4-9,16.5-9c12.1,0,19.1,8,19.1,20.9v36.4h-16v-31.4c0-7.6-3.6-11.4-9.7-11.4
			c-6.1,0-10,3.9-10,11.4v31.4h-16V196.4z"/>
		<path class="st0" d="M237.9,4.9L215,27.8c-4.5,4.5-4.5,11.8,0,16.3l89.5,89.5c4.5,4.5,11.8,4.5,16.3,0l22.9-22.9
			c4.5-4.5,4.5-11.8,0-16.3L254.2,4.9C249.7,0.4,242.4,0.4,237.9,4.9z"/>
		<path class="st0" d="M77.4,297.6c4.1-4.1,4.1-10.7,0-14.8l-11.7-11.7c-4.1-4.1-10.7-4.1-14.8,0l-24,24c0,0,0,0,0,0l-6.6-6.6
			c-3.6-3.6-9.6-3.6-13.2,0s-3.6,9.6,0,13.2l39.7,39.7c3.6,3.6,9.6,3.6,13.2,0s3.6-9.6,0-13.2l-6.6-6.6c0,0,0,0,0,0L77.4,297.6z"/>
		<path class="st0" d="M198.6,70.6l-50.9,50.9c-4.5,4.5-4.5,12,0,16.5l31.4,31.4c22.2-16,53.4-14,73.4,6l25.4-25.4
			c4.5-4.5,4.5-12,0-16.5l-62.8-62.8C210.5,66.1,203.1,66.1,198.6,70.6z"/>
		<path class="st0" d="M165.9,182.7l-18.6-18.6c-4.3-4.3-11.5-4.3-15.8,0L66,229.6c-4.3,4.3-4.3,11.5,0,15.8l37.1,37.1
			c4.3,4.3,11.5,4.3,15.8,0l42.1-42.1C152.2,221.9,153.8,199.7,165.9,182.7z"/>
		<path class="st0" d="M476.2,193h-22.8v-15.2h62.1V193h-22.8v59.7h-16.5V193z"/>
		<path class="st0" d="M515.6,224.2V224c0-15.7,11.2-28.7,27.2-28.7c18.4,0,26.8,14.3,26.8,29.9c0,1.2-0.1,2.7-0.2,4.1h-38.3
			c1.5,7.1,6.5,10.8,13.5,10.8c5.2,0,9-1.6,13.4-5.6l8.9,7.9c-5.1,6.4-12.5,10.3-22.5,10.3C527.8,252.7,515.6,241.1,515.6,224.2z
			 M554.4,219.6c-0.9-7-5-11.7-11.6-11.7c-6.5,0-10.7,4.6-11.9,11.7H554.4z"/>
		<path class="st0" d="M580.7,177.8h15.6v74.9h-15.6V177.8z"/>
		<path class="st0" d="M607.4,224.3v-0.2c0-15.7,11.2-28.7,27.2-28.7c18.4,0,26.8,14.3,26.8,29.9c0,1.2-0.1,2.7-0.2,4.1h-38.3
			c1.5,7.1,6.5,10.8,13.5,10.8c5.2,0,9-1.6,13.4-5.6l8.9,7.9c-5.1,6.4-12.5,10.3-22.5,10.3C619.7,252.7,607.4,241.1,607.4,224.3z
			 M646.3,219.7c-0.9-7-5-11.7-11.6-11.7c-6.5,0-10.7,4.6-11.9,11.7H646.3z"/>
		<path class="st0" d="M672.6,196.4h16v8c3.7-4.7,8.5-9,16.6-9c7.3,0,12.9,3.3,15.8,8.9c4.9-5.8,10.8-8.9,18.5-8.9
			c11.9,0,19,7.1,19,20.7v36.6h-16v-31.4c0-7.6-3.4-11.4-9.3-11.4c-6,0-9.7,3.9-9.7,11.4v31.4h-16v-31.4c0-7.6-3.4-11.4-9.3-11.4
			c-6,0-9.7,3.9-9.7,11.4v31.4h-16V196.4z"/>
		<path class="st0" d="M769.6,224.2V224c0-15.7,11.2-28.7,27.2-28.7c18.4,0,26.8,14.3,26.8,29.9c0,1.2-0.1,2.7-0.2,4.1h-38.3
			c1.5,7.1,6.5,10.8,13.5,10.8c5.2,0,9-1.6,13.4-5.6l8.9,7.9c-5.1,6.4-12.5,10.3-22.5,10.3C781.8,252.7,769.6,241.1,769.6,224.2z
			 M808.4,219.6c-0.9-7-5-11.7-11.6-11.7c-6.5,0-10.7,4.6-11.9,11.7H808.4z"/>
		<path class="st0" d="M836.5,235.7v-26.9h-6.8V195h6.8v-14.5h16.1V195H866v13.8h-13.3V233c0,3.7,1.6,5.5,5.2,5.5c3,0,5.6-0.7,7.9-2
			v12.9c-3.4,2-7.3,3.3-12.7,3.3C843.2,252.7,836.5,248.8,836.5,235.7z"/>
		<path class="st0" d="M878.1,196h16.2v11.5c3.3-7.9,8.6-13,18.2-12.6v17h-0.9c-10.8,0-17.4,6.5-17.4,20.2v21.1h-16.2V196z"/>
		<path class="st0" d="M964,195.4h17.2l-22.4,59.8c-4.5,11.9-9.3,16.3-19.2,16.3c-6,0-10.4-1.5-14.7-4l5.5-12
			c2.2,1.3,4.9,2.3,7.1,2.3c2.8,0,4.4-0.9,5.8-3.8l-22.9-58.6h17.5l13.3,39.7L964,195.4z"/>
	</g>
</g>
<g id="RULERS" class="st1">
</g>
</svg>
